<mxfile host="Electron" modified="2024-09-30T06:41:25.289Z" agent="Mozilla/5.0 (Windows NT 10.0; Win64; x64) AppleWebKit/537.36 (KHTML, like Gecko) draw.io/22.0.3 Chrome/114.0.5735.289 Electron/25.8.4 Safari/537.36" etag="Sig-jIR1Ef_oqjiAuMHR" version="22.0.3" type="device">
  <diagram name="Page-1" id="mJFKymQIfg4QHVzg1CK6">
    <mxGraphModel dx="903" dy="1230" grid="1" gridSize="10" guides="1" tooltips="1" connect="1" arrows="1" fold="1" page="1" pageScale="1" pageWidth="700" pageHeight="229" math="0" shadow="0">
      <root>
        <mxCell id="0" />
        <mxCell id="1" parent="0" />
        <mxCell id="3e5_tyr5HdN3c2cIww9d-15" style="edgeStyle=orthogonalEdgeStyle;rounded=0;orthogonalLoop=1;jettySize=auto;html=1;exitX=0;exitY=0.5;exitDx=0;exitDy=0;entryX=1;entryY=0.5;entryDx=0;entryDy=0;endArrow=none;endFill=0;" edge="1" parent="1" source="3e5_tyr5HdN3c2cIww9d-1" target="3e5_tyr5HdN3c2cIww9d-4">
          <mxGeometry relative="1" as="geometry" />
        </mxCell>
        <mxCell id="3e5_tyr5HdN3c2cIww9d-16" style="edgeStyle=orthogonalEdgeStyle;rounded=0;orthogonalLoop=1;jettySize=auto;html=1;exitX=0.5;exitY=0;exitDx=0;exitDy=0;entryX=0.5;entryY=1;entryDx=0;entryDy=0;endArrow=none;endFill=0;" edge="1" parent="1" source="3e5_tyr5HdN3c2cIww9d-1" target="3e5_tyr5HdN3c2cIww9d-2">
          <mxGeometry relative="1" as="geometry" />
        </mxCell>
        <mxCell id="3e5_tyr5HdN3c2cIww9d-17" style="edgeStyle=orthogonalEdgeStyle;rounded=0;orthogonalLoop=1;jettySize=auto;html=1;exitX=0.5;exitY=1;exitDx=0;exitDy=0;entryX=0.5;entryY=0;entryDx=0;entryDy=0;endArrow=none;endFill=0;" edge="1" parent="1" source="3e5_tyr5HdN3c2cIww9d-1" target="3e5_tyr5HdN3c2cIww9d-3">
          <mxGeometry relative="1" as="geometry" />
        </mxCell>
        <mxCell id="3e5_tyr5HdN3c2cIww9d-18" style="edgeStyle=orthogonalEdgeStyle;rounded=0;orthogonalLoop=1;jettySize=auto;html=1;exitX=1;exitY=0.5;exitDx=0;exitDy=0;entryX=0;entryY=0.5;entryDx=0;entryDy=0;endArrow=none;endFill=0;" edge="1" parent="1" source="3e5_tyr5HdN3c2cIww9d-1" target="3e5_tyr5HdN3c2cIww9d-7">
          <mxGeometry relative="1" as="geometry" />
        </mxCell>
        <mxCell id="3e5_tyr5HdN3c2cIww9d-1" value="Processeur" style="rounded=0;whiteSpace=wrap;html=1;" vertex="1" parent="1">
          <mxGeometry x="230" y="-398" width="100" height="100" as="geometry" />
        </mxCell>
        <mxCell id="3e5_tyr5HdN3c2cIww9d-2" value="RAM&lt;br&gt;&lt;font style=&quot;font-size: 10px;&quot;&gt;(mémoire volatile)&lt;/font&gt;" style="rounded=0;whiteSpace=wrap;html=1;" vertex="1" parent="1">
          <mxGeometry x="230" y="-448" width="100" height="40" as="geometry" />
        </mxCell>
        <mxCell id="3e5_tyr5HdN3c2cIww9d-3" value="SSD&lt;br&gt;&lt;font style=&quot;font-size: 10px;&quot;&gt;(stockage de masse)&lt;/font&gt;" style="rounded=0;whiteSpace=wrap;html=1;" vertex="1" parent="1">
          <mxGeometry x="230" y="-288" width="100" height="50" as="geometry" />
        </mxCell>
        <mxCell id="3e5_tyr5HdN3c2cIww9d-14" style="edgeStyle=orthogonalEdgeStyle;rounded=0;orthogonalLoop=1;jettySize=auto;html=1;exitX=0;exitY=0.5;exitDx=0;exitDy=0;entryX=1;entryY=0.5;entryDx=0;entryDy=0;endArrow=none;endFill=0;" edge="1" parent="1" source="3e5_tyr5HdN3c2cIww9d-4" target="3e5_tyr5HdN3c2cIww9d-5">
          <mxGeometry relative="1" as="geometry" />
        </mxCell>
        <mxCell id="3e5_tyr5HdN3c2cIww9d-4" value="GPU" style="rounded=0;whiteSpace=wrap;html=1;" vertex="1" parent="1">
          <mxGeometry x="170" y="-398" width="50" height="100" as="geometry" />
        </mxCell>
        <mxCell id="3e5_tyr5HdN3c2cIww9d-5" value="Écran" style="rounded=0;whiteSpace=wrap;html=1;" vertex="1" parent="1">
          <mxGeometry x="40" y="-398" width="100" height="100" as="geometry" />
        </mxCell>
        <mxCell id="3e5_tyr5HdN3c2cIww9d-19" style="edgeStyle=orthogonalEdgeStyle;rounded=0;orthogonalLoop=1;jettySize=auto;html=1;exitX=0;exitY=0.5;exitDx=0;exitDy=0;entryX=1;entryY=0.25;entryDx=0;entryDy=0;endArrow=none;endFill=0;" edge="1" parent="1" source="3e5_tyr5HdN3c2cIww9d-6" target="3e5_tyr5HdN3c2cIww9d-7">
          <mxGeometry relative="1" as="geometry" />
        </mxCell>
        <mxCell id="3e5_tyr5HdN3c2cIww9d-23" style="edgeStyle=orthogonalEdgeStyle;rounded=0;orthogonalLoop=1;jettySize=auto;html=1;exitX=1;exitY=0.5;exitDx=0;exitDy=0;entryX=0;entryY=0.5;entryDx=0;entryDy=0;endArrow=none;endFill=0;" edge="1" parent="1" source="3e5_tyr5HdN3c2cIww9d-6" target="3e5_tyr5HdN3c2cIww9d-11">
          <mxGeometry relative="1" as="geometry" />
        </mxCell>
        <mxCell id="3e5_tyr5HdN3c2cIww9d-24" style="edgeStyle=orthogonalEdgeStyle;rounded=0;orthogonalLoop=1;jettySize=auto;html=1;exitX=1;exitY=0.5;exitDx=0;exitDy=0;entryX=0;entryY=0.5;entryDx=0;entryDy=0;endArrow=none;endFill=0;" edge="1" parent="1" source="3e5_tyr5HdN3c2cIww9d-6" target="3e5_tyr5HdN3c2cIww9d-10">
          <mxGeometry relative="1" as="geometry" />
        </mxCell>
        <mxCell id="3e5_tyr5HdN3c2cIww9d-6" value="USB" style="rounded=0;whiteSpace=wrap;html=1;" vertex="1" parent="1">
          <mxGeometry x="400" y="-398" width="50" height="40" as="geometry" />
        </mxCell>
        <mxCell id="3e5_tyr5HdN3c2cIww9d-7" value="Chipset" style="rounded=0;whiteSpace=wrap;html=1;" vertex="1" parent="1">
          <mxGeometry x="340" y="-398" width="50" height="100" as="geometry" />
        </mxCell>
        <mxCell id="3e5_tyr5HdN3c2cIww9d-22" style="edgeStyle=orthogonalEdgeStyle;rounded=0;orthogonalLoop=1;jettySize=auto;html=1;exitX=1;exitY=0.5;exitDx=0;exitDy=0;endArrow=none;endFill=0;" edge="1" parent="1" source="3e5_tyr5HdN3c2cIww9d-8" target="3e5_tyr5HdN3c2cIww9d-12">
          <mxGeometry relative="1" as="geometry" />
        </mxCell>
        <mxCell id="3e5_tyr5HdN3c2cIww9d-8" value="Ethernet" style="rounded=0;whiteSpace=wrap;html=1;" vertex="1" parent="1">
          <mxGeometry x="400" y="-318" width="50" height="20" as="geometry" />
        </mxCell>
        <mxCell id="3e5_tyr5HdN3c2cIww9d-9" value="Wi-Fi" style="rounded=0;whiteSpace=wrap;html=1;" vertex="1" parent="1">
          <mxGeometry x="400" y="-348" width="50" height="20" as="geometry" />
        </mxCell>
        <mxCell id="3e5_tyr5HdN3c2cIww9d-10" value="Souris" style="rounded=0;whiteSpace=wrap;html=1;" vertex="1" parent="1">
          <mxGeometry x="500" y="-418" width="70" height="40" as="geometry" />
        </mxCell>
        <mxCell id="3e5_tyr5HdN3c2cIww9d-11" value="Clavier" style="rounded=0;whiteSpace=wrap;html=1;" vertex="1" parent="1">
          <mxGeometry x="500" y="-368" width="70" height="40" as="geometry" />
        </mxCell>
        <mxCell id="3e5_tyr5HdN3c2cIww9d-26" style="edgeStyle=orthogonalEdgeStyle;rounded=0;orthogonalLoop=1;jettySize=auto;html=1;exitX=1;exitY=0.5;exitDx=0;exitDy=0;endArrow=none;endFill=0;entryX=0.07;entryY=0.4;entryDx=0;entryDy=0;entryPerimeter=0;" edge="1" parent="1" source="3e5_tyr5HdN3c2cIww9d-12" target="3e5_tyr5HdN3c2cIww9d-13">
          <mxGeometry relative="1" as="geometry" />
        </mxCell>
        <mxCell id="3e5_tyr5HdN3c2cIww9d-12" value="Routeur" style="rounded=0;whiteSpace=wrap;html=1;" vertex="1" parent="1">
          <mxGeometry x="500" y="-318" width="70" height="20" as="geometry" />
        </mxCell>
        <mxCell id="3e5_tyr5HdN3c2cIww9d-13" value="Internet" style="ellipse;shape=cloud;whiteSpace=wrap;html=1;" vertex="1" parent="1">
          <mxGeometry x="580" y="-328" width="80" height="50" as="geometry" />
        </mxCell>
        <mxCell id="3e5_tyr5HdN3c2cIww9d-20" style="edgeStyle=orthogonalEdgeStyle;rounded=0;orthogonalLoop=1;jettySize=auto;html=1;exitX=0;exitY=0.5;exitDx=0;exitDy=0;entryX=0.999;entryY=0.586;entryDx=0;entryDy=0;entryPerimeter=0;endArrow=none;endFill=0;" edge="1" parent="1" source="3e5_tyr5HdN3c2cIww9d-9" target="3e5_tyr5HdN3c2cIww9d-7">
          <mxGeometry relative="1" as="geometry" />
        </mxCell>
        <mxCell id="3e5_tyr5HdN3c2cIww9d-21" style="edgeStyle=orthogonalEdgeStyle;rounded=0;orthogonalLoop=1;jettySize=auto;html=1;exitX=0;exitY=0.5;exitDx=0;exitDy=0;entryX=0.999;entryY=0.889;entryDx=0;entryDy=0;entryPerimeter=0;endArrow=none;endFill=0;" edge="1" parent="1" source="3e5_tyr5HdN3c2cIww9d-8" target="3e5_tyr5HdN3c2cIww9d-7">
          <mxGeometry relative="1" as="geometry" />
        </mxCell>
      </root>
    </mxGraphModel>
  </diagram>
</mxfile>
